<?xml version="1.0" encoding="UTF-8" standalone="no"?>
<!DOCTYPE svg PUBLIC "-//W3C//DTD SVG 1.1//EN" "http://www.w3.org/Graphics/SVG/1.1/DTD/svg11.dtd">
<svg width="100%" height="100%" viewBox="0 0 512 512" version="1.1" xmlns="http://www.w3.org/2000/svg" xmlns:xlink="http://www.w3.org/1999/xlink" xml:space="preserve" xmlns:serif="http://www.serif.com/" style="fill-rule:evenodd;clip-rule:evenodd;stroke-linejoin:round;stroke-miterlimit:2;">
    <g transform="matrix(1,0,0,1,-2.48824,-554.407)">
        <g id="logomark-light" serif:id="logomark/light" transform="matrix(1.27941,0,0,1.35134,906.734,827.598)">
            <rect x="-706.77" y="-202.163" width="400.186" height="378.882" style="fill:none;"/>
            <g transform="matrix(4.85082,0,0,4.85082,1920.8,464.152)">
                <g transform="matrix(0.781613,0,0,0.740005,-706.77,-202.163)">
                    <path d="M263.929,176.134C256.825,176.23 250.609,174.766 245.281,171.742C239.953,168.718 235.777,164.59 232.753,159.358C229.729,154.126 228.121,148.342 227.929,142.006C227.833,135.478 229.321,129.694 232.393,124.654C235.465,119.614 239.737,115.606 245.209,112.63C250.681,109.654 256.921,108.166 263.929,108.166C270.841,108.07 276.961,109.51 282.289,112.486C287.617,115.462 291.865,119.494 295.033,124.582C298.201,129.67 299.881,135.478 300.073,142.006C300.169,148.246 298.681,153.934 295.609,159.07C292.537,164.206 288.265,168.286 282.793,171.31C277.321,174.334 271.033,175.942 263.929,176.134Z" style="fill:white;fill-rule:nonzero;"/>
                    <path d="M264.096,188.502C254.591,188.631 246.304,186.545 239.175,182.499C231.886,178.362 226.181,172.706 222.044,165.548C218.004,158.56 215.822,150.844 215.565,142.381C215.563,142.317 215.562,142.252 215.561,142.188C215.428,133.16 217.582,125.187 221.831,118.217C226.026,111.335 231.827,105.828 239.299,101.764C246.483,97.857 254.651,95.81 263.841,95.797C273.063,95.682 281.207,97.714 288.32,101.688C295.521,105.709 301.251,111.169 305.533,118.044C309.827,124.941 312.176,132.794 312.436,141.643C312.438,141.7 312.439,141.758 312.44,141.816C312.573,150.451 310.475,158.312 306.224,165.419C302.035,172.422 296.236,178.013 288.775,182.136C281.658,186.069 273.503,188.249 264.263,188.499C264.207,188.5 264.151,188.501 264.096,188.502ZM263.929,176.134C271.033,175.942 277.321,174.334 282.793,171.31C288.265,168.286 292.537,164.206 295.609,159.07C298.681,153.934 300.169,148.246 300.073,142.006C299.881,135.478 298.201,129.67 295.033,124.582C291.865,119.494 287.617,115.462 282.289,112.486C276.961,109.51 270.841,108.07 263.929,108.166C256.921,108.166 250.681,109.654 245.209,112.63C239.737,115.606 235.465,119.614 232.393,124.654C229.321,129.694 227.833,135.478 227.929,142.006C228.121,148.342 229.729,154.126 232.753,159.358C235.777,164.59 239.953,168.718 245.281,171.742C250.609,174.766 256.825,176.23 263.929,176.134Z"/>
                </g>
                <g transform="matrix(0.781613,0,0,0.740005,-706.77,-202.163)">
                    <path d="M264.361,155.11C261.769,155.11 259.513,154.102 257.593,152.086C255.673,150.07 254.713,147.718 254.713,145.03C254.713,142.342 255.673,140.014 257.593,138.046C259.513,136.078 261.769,135.094 264.361,135.094C266.953,135.094 269.209,136.078 271.129,138.046C273.049,140.014 274.009,142.342 274.009,145.03C274.009,147.718 273.049,150.07 271.129,152.086C269.209,154.102 266.953,155.11 264.361,155.11Z" style="fill:rgb(246,51,154);stroke:black;stroke-width:9.48px;"/>
                </g>
            </g>
        </g>
    </g>
</svg>
