<svg xmlns="http://www.w3.org/2000/svg" xml:space="preserve" style="fill-rule:evenodd;clip-rule:evenodd;stroke-linejoin:round;stroke-miterlimit:2" viewBox="0 0 512 256">
<path d="M-49.366-42.212h614.951v237.824H-49.366z" style="fill:none" transform="matrix(.83259 0 0 1.07643 41.101 45.438)"/>
<path d="M142.989 266.806c-4.267 0-7.51-1.408-9.728-4.224-2.219-2.816-3.734-7.018-4.544-12.608-.811-5.589-1.216-12.522-1.216-20.8 0-2.986.042-5.802.128-8.448.085-2.645.17-5.12.256-7.424-10.24-.512-17.75-1.962-22.528-4.352-4.779-2.389-7.168-6.528-7.168-12.416 0-7.338 3.733-12.288 11.2-14.848 7.466-2.56 18.709-3.84 33.728-3.84 15.104 0 26.474 1.28 34.112 3.84 7.637 2.56 11.456 7.51 11.456 14.848 0 5.803-2.411 9.92-7.232 12.352-4.822 2.432-12.31 3.904-22.464 4.416.17 2.304.298 4.779.384 7.424.085 2.646.128 5.462.128 8.448 0 13.056-1.152 22.592-3.456 28.608-2.304 6.016-6.656 9.024-13.056 9.024Zm64.896.384c-6.315.086-11.84-1.216-16.576-3.904-4.736-2.688-8.448-6.357-11.136-11.008-2.688-4.65-4.118-9.792-4.288-15.424-.086-5.802 1.237-10.944 3.968-15.424 2.73-4.48 6.528-8.042 11.392-10.688 4.864-2.645 10.41-3.968 16.64-3.968 6.144-.085 11.584 1.195 16.32 3.84 4.736 2.646 8.512 6.23 11.328 10.752 2.816 4.523 4.309 9.686 4.48 15.488.085 5.547-1.238 10.603-3.968 15.168-2.731 4.566-6.528 8.192-11.392 10.88-4.864 2.688-10.454 4.118-16.768 4.288Zm.384-18.688c2.304 0 4.309-.896 6.016-2.688 1.706-1.792 2.56-3.882 2.56-6.272 0-2.389-.854-4.458-2.56-6.208-1.707-1.749-3.712-2.624-6.016-2.624s-4.31.875-6.016 2.624c-1.707 1.75-2.56 3.819-2.56 6.208 0 2.39.853 4.48 2.56 6.272 1.706 1.792 3.712 2.688 6.016 2.688Zm50.816 18.304c-5.718 0-9.686-3.52-11.904-10.56-2.219-7.04-3.328-18.41-3.328-34.112 0-8.789.298-16.533.896-23.232.597-6.698 1.984-11.946 4.16-15.744 2.176-3.797 5.568-5.696 10.176-5.696 3.328 0 5.866.982 7.616 2.944 1.749 1.963 2.986 4.736 3.712 8.32.725 3.584 1.13 7.851 1.216 12.8.085 4.95.128 10.411.128 16.384l.384-.256c4.266-2.901 8.405-5.397 12.416-7.488 4.01-2.09 7.68-3.136 11.008-3.136 2.474 0 4.544.576 6.208 1.728 1.664 1.152 2.922 2.603 3.776 4.352.853 1.75 1.28 3.52 1.28 5.312 0 3.243-1.152 6.187-3.456 8.832-2.304 2.646-5.291 5.334-8.96 8.064a55.308 55.308 0 0 1 3.008 4.16 221.955 221.955 0 0 1 3.136 4.928 38.088 38.088 0 0 1 3.584 6.912c.938 2.39 1.408 4.566 1.408 6.528 0 2.304-.555 4.118-1.664 5.44a9.094 9.094 0 0 1-4.096 2.816c-1.622.555-3.243.79-4.864.704-2.475-.17-4.95-1.365-7.424-3.584-2.475-2.218-4.864-4.821-7.168-7.808a75.999 75.999 0 0 1-3.008-4.032 98.231 98.231 0 0 1-2.752-4.16c-1.28.512-2.518.939-3.712 1.28-.598 6.315-1.771 10.944-3.52 13.888-1.75 2.944-4.502 4.416-8.256 4.416Zm65.28-61.824c-4.182 0-7.723-1.514-10.624-4.544-2.902-3.029-4.352-6.72-4.352-11.072 0-2.901.661-5.504 1.984-7.808a15.62 15.62 0 0 1 5.376-5.568c2.261-1.408 4.8-2.112 7.616-2.112 2.73 0 5.226.704 7.488 2.112a16.188 16.188 0 0 1 5.44 5.568c1.365 2.304 2.048 4.907 2.048 7.808 0 2.902-.683 5.526-2.048 7.872-1.366 2.347-3.179 4.224-5.44 5.632-2.262 1.408-4.758 2.112-7.488 2.112Zm0 62.08c-3.414 0-5.952-.981-7.616-2.944-1.664-1.962-2.774-4.97-3.328-9.024-.555-4.053-.875-9.28-.96-15.68 0-6.4.277-11.648.832-15.744.554-4.096 1.685-7.104 3.392-9.024 1.706-1.92 4.266-2.88 7.68-2.88 3.413 0 5.952.96 7.616 2.88 1.664 1.92 2.794 4.928 3.392 9.024.597 4.096.896 9.344.896 15.744.085 6.4-.171 11.627-.768 15.68-.598 4.054-1.75 7.062-3.456 9.024-1.707 1.963-4.267 2.944-7.68 2.944Zm49.28 0c-6.315 0-11.755-1.493-16.32-4.48-4.566-2.986-8.064-6.869-10.496-11.648-2.432-4.778-3.648-9.77-3.648-14.976 0-6.656 1.344-12.117 4.032-16.384 2.688-4.266 6.122-7.445 10.304-9.536 4.181-2.09 8.533-3.136 13.056-3.136 2.133 0 4.309.235 6.528.704a21.909 21.909 0 0 1 6.272 2.368 49.813 49.813 0 0 0-2.24-10.816 34.753 34.753 0 0 1-1.728-10.816c0-3.754 1.152-6.528 3.456-8.32 2.304-1.792 4.778-2.688 7.424-2.688 3.072 0 5.717.982 7.936 2.944 2.218 1.963 4.117 4.566 5.696 7.808 1.578 3.243 2.837 6.891 3.776 10.944a99.086 99.086 0 0 1 2.048 12.48c.426 4.267.64 8.363.64 12.288 0 1.28-.064 3.243-.192 5.888-.128 2.646-.534 5.59-1.216 8.832-.683 3.243-1.771 6.528-3.264 9.856-1.494 3.328-3.584 6.4-6.272 9.216-2.688 2.816-6.123 5.099-10.304 6.848-4.182 1.75-9.344 2.624-15.488 2.624Zm.768-20.224c2.304 0 4.309-.874 6.016-2.624 1.706-1.749 2.56-3.818 2.56-6.208 0-2.389-.854-4.48-2.56-6.272-1.707-1.792-3.712-2.688-6.016-2.688s-4.331.896-6.08 2.688c-1.75 1.792-2.624 3.883-2.624 6.272 0 2.39.874 4.459 2.624 6.208 1.749 1.75 3.776 2.624 6.08 2.624Zm71.808 20.352c-6.315.086-11.84-1.216-16.576-3.904-4.736-2.688-8.448-6.357-11.136-11.008-2.688-4.65-4.118-9.792-4.288-15.424-.086-5.802 1.237-10.944 3.968-15.424 2.73-4.48 6.528-8.042 11.392-10.688 4.864-2.645 10.41-3.968 16.64-3.968 6.144-.085 11.584 1.195 16.32 3.84 4.736 2.646 8.512 6.23 11.328 10.752 2.816 4.523 4.309 9.686 4.48 15.488.085 5.547-1.238 10.603-3.968 15.168-2.731 4.566-6.528 8.192-11.392 10.88-4.864 2.688-10.454 4.118-16.768 4.288Zm.384-18.688c2.304 0 4.309-.896 6.016-2.688 1.706-1.792 2.56-3.882 2.56-6.272 0-2.389-.854-4.458-2.56-6.208-1.707-1.749-3.712-2.624-6.016-2.624s-4.31.875-6.016 2.624c-1.707 1.75-2.56 3.819-2.56 6.208 0 2.39.853 4.48 2.56 6.272 1.706 1.792 3.712 2.688 6.016 2.688Zm50.816 18.304c-5.718 0-9.686-3.52-11.904-10.56-2.219-7.04-3.328-18.41-3.328-34.112 0-8.789.298-16.533.896-23.232.597-6.698 1.984-11.946 4.16-15.744 2.176-3.797 5.568-5.696 10.176-5.696 3.328 0 5.866.982 7.616 2.944 1.749 1.963 2.986 4.736 3.712 8.32.725 3.584 1.13 7.851 1.216 12.8.085 4.95.128 10.411.128 16.384l.384-.256c4.266-2.901 8.405-5.397 12.416-7.488 4.01-2.09 7.68-3.136 11.008-3.136 2.474 0 4.544.576 6.208 1.728 1.664 1.152 2.922 2.603 3.776 4.352.853 1.75 1.28 3.52 1.28 5.312 0 3.243-1.152 6.187-3.456 8.832-2.304 2.646-5.291 5.334-8.96 8.064a55.308 55.308 0 0 1 3.008 4.16 221.955 221.955 0 0 1 3.136 4.928 38.088 38.088 0 0 1 3.584 6.912c.938 2.39 1.408 4.566 1.408 6.528 0 2.304-.555 4.118-1.664 5.44a9.094 9.094 0 0 1-4.096 2.816c-1.622.555-3.243.79-4.864.704-2.475-.17-4.95-1.365-7.424-3.584-2.475-2.218-4.864-4.821-7.168-7.808a75.999 75.999 0 0 1-3.008-4.032 98.231 98.231 0 0 1-2.752-4.16c-1.28.512-2.518.939-3.712 1.28-.598 6.315-1.771 10.944-3.52 13.888-1.75 2.944-4.502 4.416-8.256 4.416Zm65.28-61.824c-4.182 0-7.723-1.514-10.624-4.544-2.902-3.029-4.352-6.72-4.352-11.072 0-2.901.661-5.504 1.984-7.808a15.62 15.62 0 0 1 5.376-5.568c2.261-1.408 4.8-2.112 7.616-2.112 2.73 0 5.226.704 7.488 2.112a16.188 16.188 0 0 1 5.44 5.568c1.365 2.304 2.048 4.907 2.048 7.808 0 2.902-.683 5.526-2.048 7.872-1.366 2.347-3.179 4.224-5.44 5.632-2.262 1.408-4.758 2.112-7.488 2.112Zm0 62.08c-3.414 0-5.952-.981-7.616-2.944-1.664-1.962-2.774-4.97-3.328-9.024-.555-4.053-.875-9.28-.96-15.68 0-6.4.277-11.648.832-15.744.554-4.096 1.685-7.104 3.392-9.024 1.706-1.92 4.266-2.88 7.68-2.88 3.413 0 5.952.96 7.616 2.88 1.664 1.92 2.794 4.928 3.392 9.024.597 4.096.896 9.344.896 15.744.085 6.4-.171 11.627-.768 15.68-.598 4.054-1.75 7.062-3.456 9.024-1.707 1.963-4.267 2.944-7.68 2.944Z" style="fill:#fff" transform="translate(-81.933 -92.537)"/>
<path d="M116.735 105.083c2.91-.558 5.959-.842 9.144-.845 8.013-.101 15.09 1.658 21.27 5.11a42.525 42.525 0 0 1 5.19 3.409c.139-2.546.31-4.972.517-7.28.754-8.457 2.697-15.032 5.444-19.827 4.047-7.062 10.282-10.724 18.853-10.724 3.032 0 5.692.515 8.005 1.409l3.81 2.003 3.266 2.879c2.75 3.086 4.907 7.353 6.048 12.99.784 3.876 1.263 8.45 1.394 13.724 5.037-2.374 9.712-3.437 13.957-3.437a23.2 23.2 0 0 1 5.044.532c-.811-2.548-1.22-5.28-1.22-8.196 0-4.757 1.142-9.01 3.311-12.786 2.156-3.756 5.076-6.783 8.763-9.08 3.834-2.386 8.127-3.622 12.902-3.622 4.66 0 8.914 1.22 12.773 3.623 3.64 2.266 6.56 5.25 8.757 8.959 2.26 3.813 3.446 8.105 3.446 12.906 0 4.759-1.165 9.052-3.405 12.9-1.528 2.627-3.406 4.885-5.63 6.78.361.48.71.99 1.047 1.536 3.267-4.081 7.176-7.23 11.691-9.488 5.508-2.754 11.24-4.14 17.19-4.19a44.433 44.433 0 0 1-.829-8.562c0-7.413 2.767-12.675 7.316-16.213 4.198-3.265 8.744-4.795 13.564-4.795 5.643 0 10.486 1.849 14.561 5.454 3.116 2.757 5.845 6.367 8.062 10.92 1.885 3.874 3.406 8.225 4.527 13.066.674 2.914 1.23 5.877 1.664 8.89a42.568 42.568 0 0 1 5.704-3.707c6.255-3.402 13.37-5.177 21.344-5.183 8.013-.101 15.09 1.658 21.27 5.11a42.525 42.525 0 0 1 5.191 3.409c.138-2.546.31-4.972.516-7.28.754-8.457 2.697-15.032 5.444-19.827 4.047-7.062 10.282-10.724 18.853-10.724 3.032 0 5.692.515 8.005 1.409l3.811 2.003 3.265 2.879c2.752 3.086 4.908 7.353 6.049 12.99.784 3.876 1.263 8.45 1.394 13.724 5.037-2.374 9.712-3.437 13.957-3.437a23.2 23.2 0 0 1 5.044.532c-.811-2.548-1.22-5.28-1.22-8.196 0-4.757 1.142-9.01 3.31-12.786 2.157-3.756 5.077-6.783 8.764-9.08 3.834-2.386 8.127-3.622 12.902-3.622 4.66 0 8.914 1.22 12.773 3.623 3.64 2.266 6.56 5.25 8.757 8.959 2.26 3.813 3.446 8.105 3.446 12.906 0 4.759-1.165 9.052-3.405 12.9-1.528 2.627-3.406 4.885-5.631 6.78 2.28 3.02 4.112 7.345 4.963 13.18.65 4.459.998 10.165 1 17.076.093 7.04-.217 12.79-.874 17.25-.944 6.407-3.106 11.026-5.803 14.128l-3.307 2.957-3.86 2.027c-2.306.884-4.985 1.398-8.06 1.398-3.09 0-5.771-.52-8.07-1.408l-3.871-2.057-2.57-2.343-2.16 1.969-4.668 2.341c-2.874.983-5.751 1.38-8.626 1.228l-.162-.009c-4.425-.306-8.987-2.148-13.412-6.115a62.957 62.957 0 0 1-4.29-4.246c-.195.376-.394.735-.599 1.077l-3.093 3.962-4.163 3.059c-2.713 1.451-5.895 2.286-9.596 2.286-8.568 0-15.407-3.921-19.61-12.827-2.83 2.997-6.156 5.559-9.986 7.676-6.194 3.423-13.293 5.314-21.334 5.532l-.135.002c-8.256.112-15.456-1.692-21.647-5.206-5.66-3.212-10.22-7.481-13.687-12.795a44.698 44.698 0 0 1-4.352 5.307c-3.577 3.748-8.113 6.84-13.678 9.168-5.229 2.188-11.664 3.399-19.347 3.399-8.446 0-15.689-2.117-21.795-6.111-3.144-2.057-5.904-4.436-8.284-7.134-1.065 2.818-2.432 5.089-3.975 6.863l-3.307 2.957-3.86 2.027c-2.306.884-4.985 1.398-8.059 1.398-3.09 0-5.772-.52-8.07-1.408l-3.872-2.057-2.569-2.343-2.16 1.969-4.669 2.341c-2.874.983-5.751 1.38-8.626 1.228l-.162-.009c-4.425-.306-8.987-2.148-13.412-6.115a62.957 62.957 0 0 1-4.29-4.246c-.195.376-.394.735-.598 1.077l-3.093 3.962-4.163 3.059c-2.713 1.451-5.895 2.286-9.596 2.286-8.568 0-15.407-3.921-19.61-12.827-2.83 2.997-6.156 5.559-9.986 7.676-6.194 3.423-13.293 5.314-21.334 5.532l-.135.002c-8.256.112-15.456-1.692-21.647-5.206-6.322-3.588-11.27-8.493-14.858-14.701a41.465 41.465 0 0 1-3.342-7.325c-.691 4.585-1.634 8.384-2.79 11.402-3.95 10.312-11.424 15.447-22.394 15.447-7.778 0-13.54-2.902-17.583-8.035-3.074-3.902-5.463-9.617-6.586-17.361-.867-5.976-1.32-13.387-1.32-22.236 0-2.355.026-4.61.078-6.76-7.166-.963-12.718-2.532-16.694-4.52-8.283-4.141-12.696-11.155-12.696-21.36 0-11.924 5.824-20.147 17.957-24.307 8.189-2.808 20.5-4.381 36.972-4.381 16.519 0 28.937 1.559 37.29 4.359 12.392 4.154 18.278 12.42 18.278 24.329 0 .366-.006.727-.018 1.085Zm9.218 69.571c6.314-.17 11.904-1.6 16.768-4.288 4.864-2.688 8.66-6.314 11.392-10.88 2.73-4.565 4.053-9.621 3.968-15.168-.171-5.802-1.664-10.965-4.48-15.488-2.816-4.522-6.592-8.106-11.328-10.752-4.736-2.645-10.176-3.925-16.32-3.84-6.23 0-11.776 1.323-16.64 3.968-4.864 2.646-8.662 6.208-11.392 10.688-2.731 4.48-4.054 9.622-3.968 15.424.17 5.632 1.6 10.774 4.288 15.424 2.688 4.651 6.4 8.32 11.136 11.008 4.736 2.688 10.26 3.99 16.576 3.904Zm.384-18.688c-2.304 0-4.31-.896-6.016-2.688-1.707-1.792-2.56-3.882-2.56-6.272s.853-4.458 2.56-6.208c1.706-1.75 3.712-2.624 6.016-2.624s4.309.875 6.016 2.624c1.706 1.75 2.56 3.819 2.56 6.208 0 2.39-.854 4.48-2.56 6.272-1.707 1.792-3.712 2.688-6.016 2.688Zm0-10c-.453 0-.891.064-1.226.416-.165.173-.198.393-.198.624 0 .294.072.56.282.776.314.32.718.392 1.142.392.423 0 .827-.071 1.14-.392.21-.215.284-.482.284-.776 0-.231-.034-.451-.2-.624-.334-.352-.772-.416-1.224-.416Zm165.376 28.56c6.144 0 11.306-.874 15.488-2.624 4.181-1.749 7.616-4.032 10.304-6.848 2.688-2.816 4.778-5.888 6.272-9.216 1.493-3.328 2.581-6.613 3.264-9.856.682-3.242 1.088-6.186 1.216-8.832.128-2.645.192-4.608.192-5.888 0-3.925-.214-8.021-.64-12.288a99.086 99.086 0 0 0-2.048-12.48c-.939-4.053-2.198-7.701-3.776-10.944-1.579-3.242-3.478-5.845-5.696-7.808-2.219-1.962-4.864-2.944-7.936-2.944-2.646 0-5.12.896-7.424 2.688-2.304 1.792-3.456 4.566-3.456 8.32 0 3.67.576 7.275 1.728 10.816a49.813 49.813 0 0 1 2.24 10.816 21.909 21.909 0 0 0-6.272-2.368 31.518 31.518 0 0 0-6.528-.704c-4.523 0-8.875 1.046-13.056 3.136-4.182 2.09-7.616 5.27-10.304 9.536-2.688 4.267-4.032 9.728-4.032 16.384 0 5.206 1.216 10.198 3.648 14.976 2.432 4.779 5.93 8.662 10.496 11.648 4.565 2.987 10.005 4.48 16.32 4.48Zm.768-20.224c-2.304 0-4.33-.874-6.08-2.624s-2.624-3.818-2.624-6.208.874-4.48 2.624-6.272c1.75-1.792 3.776-2.688 6.08-2.688 2.304 0 4.31.896 6.016 2.688 1.706 1.792 2.56 3.883 2.56 6.272 0 2.39-.854 4.459-2.56 6.208-1.707 1.75-3.712 2.624-6.016 2.624Zm0-10c-.424 0-.828.07-1.142.393-.21.215-.282.482-.282.775 0 .23.033.45.198.625.335.352.773.415 1.226.415.39 0 .78-.023 1.075-.326.192-.197.221-.451.221-.714 0-.324-.068-.625-.305-.863-.274-.274-.63-.305-.99-.305Zm-50.048-31.856c2.73 0 5.226-.704 7.488-2.112 2.261-1.408 4.074-3.285 5.44-5.632 1.365-2.346 2.048-4.97 2.048-7.872 0-2.901-.683-5.504-2.048-7.808a16.188 16.188 0 0 0-5.44-5.568c-2.262-1.408-4.758-2.112-7.488-2.112-2.816 0-5.355.704-7.616 2.112a15.62 15.62 0 0 0-5.376 5.568c-1.323 2.304-1.984 4.907-1.984 7.808 0 4.352 1.45 8.043 4.352 11.072 2.901 3.03 6.442 4.544 10.624 4.544Zm0 62.08c3.413 0 5.973-.981 7.68-2.944 1.706-1.962 2.858-4.97 3.456-9.024.597-4.053.853-9.28.768-15.68 0-6.4-.299-11.648-.896-15.744-.598-4.096-1.728-7.104-3.392-9.024-1.664-1.92-4.203-2.88-7.616-2.88-3.414 0-5.974.96-7.68 2.88-1.707 1.92-2.838 4.928-3.392 9.024-.555 4.096-.832 9.344-.832 15.744.085 6.4.405 11.627.96 15.68.554 4.054 1.664 7.062 3.328 9.024 1.664 1.963 4.202 2.944 7.616 2.944Zm-181.376-.256c6.4 0 10.752-3.008 13.056-9.024 2.304-6.016 3.456-15.552 3.456-28.608 0-2.986-.043-5.802-.128-8.448-.086-2.645-.214-5.12-.384-7.424 10.154-.512 17.642-1.984 22.464-4.416 4.82-2.432 7.232-6.55 7.232-12.352 0-7.338-3.82-12.288-11.456-14.848-7.638-2.56-19.008-3.84-34.112-3.84-15.02 0-26.262 1.28-33.728 3.84-7.467 2.56-11.2 7.51-11.2 14.848 0 5.888 2.389 10.027 7.168 12.416 4.778 2.39 12.288 3.84 22.528 4.352a1440.83 1440.83 0 0 0-.256 7.424 260.861 260.861 0 0 0-.128 8.448c0 8.278.405 15.21 1.216 20.8.81 5.59 2.325 9.792 4.544 12.608 2.218 2.816 5.46 4.224 9.728 4.224Zm116.096 0c3.754 0 6.506-1.472 8.256-4.416 1.749-2.944 2.922-7.573 3.52-13.888a38.458 38.458 0 0 0 3.712-1.28 98.232 98.232 0 0 0 2.752 4.16 75.999 75.999 0 0 0 3.008 4.032c2.304 2.987 4.693 5.59 7.168 7.808 2.474 2.219 4.949 3.414 7.424 3.584 1.621.086 3.242-.149 4.864-.704a9.094 9.094 0 0 0 4.096-2.816c1.109-1.322 1.664-3.136 1.664-5.44 0-1.962-.47-4.138-1.408-6.528a38.088 38.088 0 0 0-3.584-6.912 221.955 221.955 0 0 0-3.136-4.928 55.308 55.308 0 0 0-3.008-4.16c3.669-2.73 6.656-5.418 8.96-8.064 2.304-2.645 3.456-5.59 3.456-8.832 0-1.792-.427-3.562-1.28-5.312-.854-1.75-2.112-3.2-3.776-4.352-1.664-1.152-3.734-1.728-6.208-1.728-3.328 0-6.998 1.046-11.008 3.136-4.011 2.09-8.15 4.587-12.416 7.488l-.384.256c0-5.973-.043-11.434-.128-16.384-.086-4.95-.491-9.216-1.216-12.8-.726-3.584-1.963-6.357-3.712-8.32-1.75-1.962-4.288-2.944-7.616-2.944-4.608 0-8 1.899-10.176 5.696-2.176 3.798-3.563 9.046-4.16 15.744-.598 6.699-.896 14.443-.896 23.232 0 15.702 1.109 27.072 3.328 34.112 2.218 7.04 6.186 10.56 11.904 10.56Zm187.136.384c6.314-.17 11.904-1.6 16.768-4.288 4.864-2.688 8.661-6.314 11.392-10.88 2.73-4.565 4.053-9.621 3.968-15.168-.17-5.802-1.664-10.965-4.48-15.488-2.816-4.522-6.592-8.106-11.328-10.752-4.736-2.645-10.176-3.925-16.32-3.84-6.23 0-11.776 1.323-16.64 3.968-4.864 2.646-8.662 6.208-11.392 10.688-2.73 4.48-4.054 9.622-3.968 15.424.17 5.632 1.6 10.774 4.288 15.424 2.688 4.651 6.4 8.32 11.136 11.008 4.736 2.688 10.261 3.99 16.576 3.904Zm.384-18.688c-2.304 0-4.31-.896-6.016-2.688-1.707-1.792-2.56-3.882-2.56-6.272s.853-4.458 2.56-6.208c1.706-1.75 3.712-2.624 6.016-2.624s4.31.875 6.016 2.624c1.706 1.75 2.56 3.819 2.56 6.208 0 2.39-.854 4.48-2.56 6.272-1.707 1.792-3.712 2.688-6.016 2.688Zm0-10c-.453 0-.89.064-1.226.416-.165.173-.198.393-.198.624 0 .294.072.56.282.776.314.32.718.392 1.142.392.423 0 .827-.071 1.141-.392.21-.215.283-.482.283-.776 0-.231-.034-.451-.199-.624-.335-.352-.773-.416-1.225-.416Zm116.097 28.56c3.413 0 5.973-.981 7.68-2.944 1.706-1.962 2.858-4.97 3.456-9.024.597-4.053.853-9.28.768-15.68 0-6.4-.3-11.648-.896-15.744-.598-4.096-1.728-7.104-3.392-9.024-1.664-1.92-4.203-2.88-7.616-2.88-3.414 0-5.974.96-7.68 2.88-1.707 1.92-2.838 4.928-3.392 9.024-.555 4.096-.832 9.344-.832 15.744.085 6.4.405 11.627.96 15.68.554 4.054 1.664 7.062 3.328 9.024 1.664 1.963 4.202 2.944 7.616 2.944Zm-65.28-.256c3.753 0 6.505-1.472 8.255-4.416 1.75-2.944 2.922-7.573 3.52-13.888a38.458 38.458 0 0 0 3.712-1.28 98.232 98.232 0 0 0 2.753 4.16 75.999 75.999 0 0 0 3.008 4.032c2.304 2.987 4.693 5.59 7.168 7.808 2.474 2.219 4.949 3.414 7.424 3.584 1.62.086 3.242-.149 4.864-.704a9.094 9.094 0 0 0 4.096-2.816c1.109-1.322 1.664-3.136 1.664-5.44 0-1.962-.47-4.138-1.408-6.528a38.088 38.088 0 0 0-3.584-6.912 221.955 221.955 0 0 0-3.136-4.928 55.308 55.308 0 0 0-3.008-4.16c3.669-2.73 6.656-5.418 8.96-8.064 2.304-2.645 3.456-5.59 3.456-8.832 0-1.792-.427-3.562-1.28-5.312-.854-1.75-2.112-3.2-3.776-4.352-1.664-1.152-3.734-1.728-6.208-1.728-3.328 0-6.998 1.046-11.008 3.136-4.011 2.09-8.15 4.587-12.417 7.488l-.384.256c0-5.973-.043-11.434-.128-16.384-.086-4.95-.49-9.216-1.216-12.8-.726-3.584-1.963-6.357-3.712-8.32-1.75-1.962-4.288-2.944-7.616-2.944-4.608 0-8 1.899-10.176 5.696-2.176 3.798-3.563 9.046-4.16 15.744-.598 6.699-.896 14.443-.896 23.232 0 15.702 1.11 27.072 3.328 34.112 2.218 7.04 6.186 10.56 11.904 10.56Zm65.28-61.824c2.73 0 5.226-.704 7.488-2.112 2.26-1.408 4.074-3.285 5.44-5.632 1.365-2.346 2.048-4.97 2.048-7.872 0-2.901-.683-5.504-2.048-7.808a16.188 16.188 0 0 0-5.44-5.568c-2.262-1.408-4.758-2.112-7.488-2.112-2.816 0-5.355.704-7.616 2.112a15.62 15.62 0 0 0-5.376 5.568c-1.323 2.304-1.984 4.907-1.984 7.808 0 4.352 1.45 8.043 4.352 11.072 2.9 3.03 6.442 4.544 10.624 4.544Z"/>
<path d="M126.336 77.966c-2.304 0-4.309-.896-6.016-2.688-1.707-1.792-2.56-3.883-2.56-6.272 0-2.389.853-4.459 2.56-6.208 1.707-1.749 3.712-2.624 6.016-2.624s4.309.875 6.016 2.624c1.707 1.749 2.56 3.819 2.56 6.208 0 2.389-.853 4.48-2.56 6.272-1.707 1.792-3.712 2.688-6.016 2.688ZM292.48 76.302c-2.304 0-4.331-.875-6.08-2.624-1.749-1.749-2.624-3.819-2.624-6.208 0-2.389.875-4.48 2.624-6.272 1.749-1.792 3.776-2.688 6.08-2.688 2.304 0 4.309.896 6.016 2.688 1.707 1.792 2.56 3.883 2.56 6.272 0 2.389-.853 4.459-2.56 6.208-1.707 1.749-3.712 2.624-6.016 2.624ZM364.672 77.966c-2.304 0-4.309-.896-6.016-2.688-1.707-1.792-2.56-3.883-2.56-6.272 0-2.389.853-4.459 2.56-6.208 1.707-1.749 3.712-2.624 6.016-2.624s4.309.875 6.016 2.624c1.707 1.749 2.56 3.819 2.56 6.208 0 2.389-2.56 6.272-2.56 6.272s-3.712 2.688-6.016 2.688Z" style="fill:oklch(59.2% 0.249 0.584);stroke:#000;stroke-width:6px" transform="translate(0 78)"/>
</svg>
